<?xml version="1.0" ?><!DOCTYPE svg  PUBLIC '-//W3C//DTD SVG 1.1//EN'  'http://www.w3.org/Graphics/SVG/1.1/DTD/svg11.dtd'><svg enable-background="new 0 0 64 64" height="64px" id="Layer_1" version="1.1" viewBox="0 0 64 64" width="64px" xml:space="preserve" xmlns="http://www.w3.org/2000/svg" xmlns:xlink="http://www.w3.org/1999/xlink"><g><g><path d="M32.01,1h-0.019l0,0C14.902,1,1,14.903,1,31.999c0,6.779,2.188,13.066,5.903,18.17L3.042,61.688    l11.914-3.809C19.856,61.123,25.706,63,32.01,63C49.1,63,63,49.094,63,32C63,14.904,49.1,1,32.01,1z M50.046,44.775    c-0.745,2.113-3.716,3.863-6.084,4.375c-1.622,0.345-3.735,0.619-10.858-2.334c-9.111-3.772-14.978-13.03-15.433-13.633    c-0.438-0.601-3.681-4.902-3.681-9.349c0-4.447,2.259-6.616,3.171-7.546c0.747-0.765,1.986-1.109,3.17-1.109    c0.384,0,0.728,0.018,1.039,0.034c0.911,0.038,1.366,0.094,1.967,1.532c0.747,1.803,2.569,6.251,2.788,6.706    c0.218,0.456,0.438,1.075,0.127,1.676c-0.292,0.62-0.546,0.896-1.001,1.423c-0.457,0.527-0.895,0.93-1.349,1.494    c-0.419,0.492-0.894,1.021-0.364,1.932c0.529,0.895,2.35,3.864,5.028,6.25c3.461,3.08,6.267,4.065,7.27,4.484    c0.746,0.311,1.64,0.236,2.187-0.346c0.692-0.748,1.549-1.986,2.423-3.207c0.619-0.877,1.403-0.985,2.222-0.676    c0.839,0.291,5.268,2.479,6.179,2.935c0.909,0.456,1.511,0.674,1.729,1.057C50.794,40.858,50.794,42.661,50.046,44.775z" fill="#7FD371"/></g><g><path d="M1,31.999c0,6.779,2.188,13.066,5.903,18.17L3.042,61.688l11.914-3.809C19.856,61.123,25.706,63,32.01,63    C49.1,63,63,49.094,63,32C63,14.904,49.1,1,32.01,1h-0.019l0,0 M50.046,44.775c-0.745,2.113-3.716,3.863-6.084,4.375    c-1.622,0.345-3.735,0.619-10.858-2.334c-9.111-3.772-14.978-13.03-15.433-13.633c-0.438-0.601-3.681-4.902-3.681-9.349    c0-4.447,2.259-6.616,3.171-7.546c0.747-0.765,1.986-1.109,3.17-1.109c0.384,0,0.728,0.018,1.039,0.034    c0.911,0.038,1.366,0.094,1.967,1.532c0.747,1.803,2.569,6.251,2.788,6.706c0.218,0.456,0.438,1.075,0.127,1.676    c-0.292,0.62-0.546,0.896-1.001,1.423c-0.457,0.527-0.895,0.93-1.349,1.494c-0.419,0.492-0.894,1.021-0.364,1.932    c0.529,0.895,2.35,3.864,5.028,6.25c3.461,3.08,6.267,4.065,7.27,4.484c0.746,0.311,1.64,0.236,2.187-0.346    c0.692-0.748,1.549-1.986,2.423-3.207c0.619-0.877,1.403-0.985,2.222-0.676c0.839,0.291,5.268,2.479,6.179,2.935    c0.909,0.456,1.511,0.674,1.729,1.057C50.794,40.858,50.794,42.661,50.046,44.775z" fill="#6DBC61"/></g><path d="M41.921,2.635c7.904,6.757,13.063,17.085,13.063,25.829c0,4.816-1.569,9.322-4.294,13.193   c-0.036,0.799-0.213,1.902-0.645,3.118c-0.745,2.113-3.716,3.863-6.084,4.375c-0.438,0.093-0.917,0.179-1.516,0.198   c-5.188,3.235-11.618,5.15-18.583,5.15c-6.272,0-12.107-1.557-16.995-4.229L3.042,61.688l11.914-3.809   C19.856,61.123,25.706,63,32.01,63C49.1,63,63,49.094,63,32C63,18.372,54.162,6.78,41.921,2.635z" fill="#549B45"/><g><path d="M42.667,36.482c0.208,0.072,0.632,0.26,1.168,0.507L23.119,16.274c0.072,0.137,0.145,0.294,0.218,0.472    c0.747,1.803,2.569,6.251,2.788,6.706c0.218,0.456,0.438,1.075,0.127,1.676c-0.292,0.62-0.546,0.896-1.001,1.423    c-0.457,0.527-0.895,0.93-1.349,1.494c-0.419,0.492-0.894,1.021-0.364,1.932c0.529,0.895,2.35,3.864,5.028,6.25    c3.461,3.08,6.267,4.065,7.27,4.484c0.746,0.311,1.64,0.236,2.187-0.346c0.692-0.748,1.549-1.986,2.423-3.207    C41.064,36.281,41.849,36.173,42.667,36.482z" fill="#549B45"/><path d="M13.992,23.862l-0.204,0.205l0.223,0.222C14.003,24.147,13.992,24.005,13.992,23.862z" fill="#5CAA4F"/></g></g></svg>